<?xml version="1.0" encoding="utf-8"?>
<!-- Generator: Adobe Illustrator 27.0.1, SVG Export Plug-In . SVG Version: 6.00 Build 0)  -->
<svg version="1.1" id="Isolation_Mode" xmlns="http://www.w3.org/2000/svg" xmlns:xlink="http://www.w3.org/1999/xlink" x="0px"
	 y="0px" viewBox="0 0 330.41 100.87" style="enable-background:new 0 0 330.41 100.87;" xml:space="preserve">
<style type="text/css">
	.st0{fill:#FFFFFF;}
</style>
<path class="st0" d="M298.18,11.4c-6.42,0-11.49,2-15.22,6c-3.72,4-5.91,9.26-6.56,15.77h41.18c-0.28-6.89-2.1-12.24-5.45-16.05
	C308.88,13.31,304.22,11.4,298.18,11.4 M299.99,73.38c-10.7,0-19.17-3.12-25.41-9.35c-6.23-6.33-9.35-14.89-9.35-25.69
	c0-6.98,1.39-13.12,4.19-18.43c2.79-5.4,6.61-9.54,11.45-12.43c4.93-2.98,10.61-4.47,17.03-4.47c9.21,0,16.43,2.98,21.64,8.93
	c5.21,5.86,7.82,13.96,7.82,24.29v4.33h-51.09c0.37,7.72,2.6,13.63,6.7,17.73c4.1,4,9.77,6,17.03,6c4.1,0,8-0.6,11.73-1.82
	c3.72-1.3,7.26-3.4,10.61-6.28l3.91,7.96c-3.07,2.89-6.98,5.17-11.73,6.84C309.76,72.59,304.92,73.38,299.99,73.38 M218.49,72.13
	L189.32,4.28h12.28l22.48,55l22.75-55h11.59L229.1,72.13H218.49z M144.27,72.13V4.28h11.03v12.14c3.63-8.19,11.07-12.7,22.33-13.54
	l4.05-0.42l0.84,9.77l-7.12,0.84c-6.42,0.56-11.31,2.6-14.66,6.14c-3.35,3.44-5.02,8.19-5.02,14.24v38.67H144.27z M80.38,97.25
	l11.59-26.24L63.35,4.28h12.28l22.48,55l22.62-55h11.87L92.25,97.25H80.38z M29.61,73.38c-5.31,0-10.33-0.74-15.08-2.23
	c-4.75-1.49-8.65-3.58-11.72-6.28l3.63-7.96c3.35,2.7,7.03,4.7,11.03,6c4.1,1.21,8.24,1.81,12.42,1.81c5.31,0,9.31-0.98,12.01-2.93
	c2.7-1.96,4.05-4.61,4.05-7.96c0-2.61-0.88-4.65-2.65-6.14c-1.77-1.58-4.56-2.79-8.38-3.63l-12.7-2.79
	C10.68,38.76,4.91,32.81,4.91,23.41c0-6.14,2.42-11.07,7.26-14.8c4.93-3.72,11.35-5.58,19.26-5.58c4.65,0,9.07,0.74,13.26,2.23
	c4.28,1.4,7.82,3.49,10.61,6.28l-3.77,7.96c-2.7-2.51-5.86-4.42-9.49-5.72c-3.54-1.4-7.07-2.09-10.61-2.09
	c-5.21,0-9.17,1.02-11.87,3.07c-2.7,2.05-4.05,4.75-4.05,8.1c0,5.21,3.44,8.56,10.33,10.05l12.7,2.65c5.96,1.3,10.47,3.4,13.54,6.28
	c3.07,2.79,4.61,6.61,4.61,11.45c0,6.24-2.47,11.17-7.4,14.8C44.37,71.62,37.8,73.38,29.61,73.38"/>
</svg>
