<?xml version="1.0" encoding="utf-8"?>
<svg width="256" height="256" viewBox="0 0 256 256" fill="none" xmlns="http://www.w3.org/2000/svg">
<path d="M0 0H256V256H0V0Z" fill="#15162F"/>
<path d="M60 192.81L67.9562 175.877C76.9973 183.607 86.4 188.761 95.4411 192.074C104.482 195.387 114.97 196.859 126.904 196.859C140.647 196.859 151.496 194.282 158.729 189.497C165.962 184.344 169.94 177.35 169.94 168.515C169.94 160.785 167.408 154.896 162.707 150.11C157.644 145.325 150.049 142.012 139.2 139.436L110.268 132.81C96.526 129.497 85.6767 123.607 77.7205 115.509C69.7644 107.411 65.7863 97.4724 65.7863 86.4294C65.7863 71.3374 71.5726 59.1902 83.1452 49.9877C94.7178 40.7853 109.907 36 129.074 36C141.37 36 152.581 37.8405 163.068 41.8896C173.556 45.9386 182.236 51.4601 188.745 58.8221L180.789 75.7546C172.833 68.7607 164.515 63.2393 156.197 59.9264C147.879 56.6135 138.838 54.773 129.436 54.773C116.416 54.773 106.652 57.3497 99.0575 62.5031C91.463 67.6564 88.2082 75.0184 88.2082 84.2209C88.2082 91.9509 90.3781 98.2086 95.0795 102.994C99.7808 107.779 106.652 111.46 116.416 113.669L145.71 120.663C176.449 128.025 192 143.485 192 167.411C192 182.135 186.214 193.914 174.279 202.748C162.345 211.583 146.433 216 126.181 216C99.4192 216 77.3589 208.27 60 192.81Z" fill="white"/>
</svg> 